{
    "accessors" : [
        {
            "bufferView" : 0,
            "componentType" : 5123,
            "count" : 5604,
            "max" : [
                2298
            ],
            "min" : [
                0
            ],
            "type" : "SCALAR"
        },
        {
            "bufferView" : 1,
            "componentType" : 5126,
            "count" : 2299,
            "max" : [
                11.610395431518555,
                6.058379173278809,
                0.6731479167938232
            ],
            "min" : [
                -11.205921173095703,
                0.007915833964943886,
                -0.6108522415161133
            ],
            "type" : "VEC3"
        },
        {
            "bufferView" : 2,
            "componentType" : 5126,
            "count" : 2299,
            "max" : [
                0.999969482421875,
                0.999969482421875,
                1.0
            ],
            "min" : [
                -0.999969482421875,
                -0.999969482421875,
                -1.0
            ],
            "type" : "VEC3"
        }
    ],
    "asset" : {
        "generator" : "Khronos Blender glTF 2.0 exporter",
        "version" : "2.0"
    },
    "bufferViews" : [
        {
            "buffer" : 0,
            "byteLength" : 11208,
            "byteOffset" : 0,
            "target" : 34963
        },
        {
            "buffer" : 0,
            "byteLength" : 27588,
            "byteOffset" : 11208,
            "target" : 34962
        },
        {
            "buffer" : 0,
            "byteLength" : 27588,
            "byteOffset" : 38796,
            "target" : 34962
        }
    ],
    "buffers" : [
        {
            "byteLength" : 66384,
            "uri" : "trineoText.bin"
        }
    ],
    "meshes" : [
        {
            "name" : "CUBezierCurve.005",
            "primitives" : [
                {
                    "attributes" : {
                        "NORMAL" : 2,
                        "POSITION" : 1
                    },
                    "indices" : 0
                }
            ]
        }
    ],
    "nodes" : [
        {
            "mesh" : 0,
            "name" : "BezierCurve.005",
            "scale" : [
                0.24121475219726562,
                0.24121475219726562,
                0.24121475219726562
            ]
        }
    ],
    "scene" : 0,
    "scenes" : [
        {
            "name" : "Scene",
            "nodes" : [
                0
            ]
        }
    ]
}
