{
    "accessors" : [
        {
            "bufferView" : 0,
            "componentType" : 5123,
            "count" : 7440,
            "max" : [
                3182
            ],
            "min" : [
                0
            ],
            "type" : "SCALAR"
        },
        {
            "bufferView" : 1,
            "componentType" : 5126,
            "count" : 3183,
            "max" : [
                11.610395431518555,
                12.759305000305176,
                0.6731479167938232
            ],
            "min" : [
                -23.355491638183594,
                -0.021767616271972656,
                -0.6108522415161133
            ],
            "type" : "VEC3"
        },
        {
            "bufferView" : 2,
            "componentType" : 5126,
            "count" : 3183,
            "max" : [
                0.999969482421875,
                0.999969482421875,
                1.0
            ],
            "min" : [
                -0.999969482421875,
                -0.999969482421875,
                -1.0
            ],
            "type" : "VEC3"
        }
    ],
    "asset" : {
        "generator" : "Khronos Blender glTF 2.0 exporter",
        "version" : "2.0"
    },
    "bufferViews" : [
        {
            "buffer" : 0,
            "byteLength" : 14880,
            "byteOffset" : 0,
            "target" : 34963
        },
        {
            "buffer" : 0,
            "byteLength" : 38196,
            "byteOffset" : 14880,
            "target" : 34962
        },
        {
            "buffer" : 0,
            "byteLength" : 38196,
            "byteOffset" : 53076,
            "target" : 34962
        }
    ],
    "buffers" : [
        {
            "byteLength" : 91272,
            "uri" : "trineoText3d2.bin"
        }
    ],
    "materials" : [
        {
            "name" : "Material.001",
            "pbrMetallicRoughness" : {
                "baseColorFactor" : [
                    0.0,
                    0.0,
                    0.0,
                    1.0
                ],
                "metallicFactor" : 0.0
            }
        }
    ],
    "meshes" : [
        {
            "name" : "CUBezierCurve.005",
            "primitives" : [
                {
                    "attributes" : {
                        "NORMAL" : 2,
                        "POSITION" : 1
                    },
                    "indices" : 0,
                    "material" : 0
                }
            ]
        }
    ],
    "nodes" : [
        {
            "mesh" : 0,
            "name" : "BezierCurve.005",
            "scale" : [
                0.20763404667377472,
                0.20763404667377472,
                0.20763404667377472
            ],
            "translation" : [
                1.407287359237671,
                -0.5188511610031128,
                -0.08328136801719666
            ]
        }
    ],
    "scene" : 0,
    "scenes" : [
        {
            "name" : "Scene",
            "nodes" : [
                0
            ]
        }
    ]
}
